<?xml version="1.0" standalone="no"?>
<!DOCTYPE svg PUBLIC "-//W3C//DTD SVG 20010904//EN"
 "http://www.w3.org/TR/2001/REC-SVG-20010904/DTD/svg10.dtd">
<svg version="1.0" xmlns="http://www.w3.org/2000/svg"
 width="380.000000pt" height="238.000000pt" viewBox="0 0 380.000000 238.000000"
 preserveAspectRatio="xMidYMid meet">

<g transform="translate(0.000000,238.000000) scale(0.100000,-0.100000)"
fill="#000000" stroke="none">
<path d="M2295 2188 c-4 -9 4 -120 18 -247 13 -127 21 -234 18 -236 -2 -3 -24
-5 -48 -5 -31 0 -43 -4 -43 -14 0 -22 12 -26 55 -16 25 6 44 5 51 -1 8 -7 14
-6 19 1 3 5 29 10 56 10 43 0 50 3 47 18 -3 14 -12 16 -50 14 l-47 -4 -5 44
c-3 24 -15 130 -26 237 -18 183 -31 237 -45 199z"/>
<path d="M1850 2104 c-1 -39 -37 -292 -44 -303 -4 -6 -25 -11 -46 -11 -43 0
-96 -17 -86 -27 4 -4 37 -12 74 -18 l67 -11 -3 -38 c-2 -20 2 -43 8 -51 11
-13 15 -13 33 0 28 20 62 19 98 -2 26 -16 31 -16 39 -3 5 8 10 32 10 53 0 20
3 37 8 38 4 0 30 2 57 5 121 11 121 26 0 47 l-80 13 -62 158 c-64 164 -73 182
-73 150z"/>
<path d="M1495 1948 c-2 -7 -11 -53 -19 -103 -9 -49 -18 -105 -22 -122 -5 -26
-3 -33 9 -33 11 0 18 13 23 38 3 20 14 77 24 127 10 49 16 93 14 97 -8 12 -24
9 -29 -4z"/>
<path d="M1425 1650 c-8 -35 0 -50 25 -50 24 0 39 58 19 71 -25 16 -37 10 -44
-21z"/>
<path d="M1486 1598 c-26 -132 -30 -124 72 -137 124 -16 134 -21 156 -65 38
-77 20 -321 -49 -696 -12 -69 -22 -126 -20 -128 5 -6 464 -2 495 5 26 5 31 10
27 27 -2 12 -26 115 -52 231 -53 234 -67 393 -46 497 17 78 38 93 140 102 117
9 111 3 111 111 0 52 -3 96 -7 98 -5 3 -60 -6 -123 -19 -63 -13 -134 -24 -157
-24 l-42 0 6 -63 c4 -42 0 -83 -11 -126 -17 -67 -77 -210 -87 -211 -12 0 -56
122 -74 202 -9 44 -15 104 -13 139 l3 61 -110 28 c-60 15 -123 33 -138 39 -58
22 -63 18 -81 -71z"/>
<path d="M1880 1625 c0 -9 9 -15 25 -15 16 0 25 6 25 15 0 9 -9 15 -25 15 -16
0 -25 -6 -25 -15z"/>
<path d="M2340 1606 c0 -19 4 -37 9 -41 15 -8 41 24 41 51 0 19 -5 24 -25 24
-22 0 -25 -4 -25 -34z"/>
<path d="M1422 1523 c-6 -32 -27 -155 -47 -273 -20 -118 -47 -275 -59 -347
-22 -123 -22 -133 -6 -133 14 0 21 22 38 128 12 70 42 245 67 390 50 295 50
292 31 292 -8 0 -17 -21 -24 -57z"/>
<path d="M2360 1510 c0 -16 5 -30 10 -30 6 0 10 14 10 30 0 17 -4 30 -10 30
-5 0 -10 -13 -10 -30z"/>
</g>
</svg>
